<svg version="1.1" id="Layer_1" xmlns="http://www.w3.org/2000/svg" xmlns:xlink="http://www.w3.org/1999/xlink" x="0px" y="0px" viewBox="0 0 500 500" style="width: 186px;" xml:space="preserve" data-imageid="authentication-5" imageName="Authentication" class="illustrations_image">
<style type="text/css">
	.st0_authentication-5{fill:#FF8E31;}
	.st1_authentication-5{fill:url(#SVGID_1_);}
	.st2_authentication-5{fill:url(#SVGID_00000108298378417191890420000008347129912439322298_);}
	.st3_authentication-5{fill:#7EC971;}
	.st4_authentication-5{fill:#653200;}
	.st5_authentication-5{fill:#FCC62D;}
	.st6_authentication-5{fill:#1CA9B7;}
	.st7_authentication-5{fill:#FFFFFF;}
	.st8_authentication-5{fill:#053855;}
	.st9_authentication-5{fill:#68E1FD;}
	.st10_authentication-5{fill:#E85454;}
</style>
<g id="Base_authentication-5">
	<path class="st0_authentication-5" d="M463.9,274.5L230.4,409.6c-9.9,5.7-22,5.7-31.9,0L34.5,315.4c-6.9-4-9.3-12.9-5.3-19.8&#10;&#9;&#9;c1.3-2.2,3.1-4.1,5.3-5.3l244.1-141l185.1,102.9c6.2,3.4,8.5,11.2,5,17.4C467.6,271.6,465.9,273.3,463.9,274.5L463.9,274.5z"/>
</g>
<g id="Shadow_authentication-5">
	
		<linearGradient id="SVGID_1_-authentication-5" gradientUnits="userSpaceOnUse" x1="217.8603" y1="530.3802" x2="246.2803" y2="485.1302" gradientTransform="matrix(1 0 0 1 0 -197.56)">
		<stop offset="0" style="stop-color:#FF8E31"/>
		<stop offset="1" style="stop-color:#ED6B21"/>
	</linearGradient>
	<path class="st1_authentication-5" d="M206.1,256.6L141,295.8c0,0,82.7,47.4,114.9,66.6l67.5-38.3"/>
	
		<linearGradient id="SVGID_00000075878123903218749640000016138770347859002808_-authentication-5" gradientUnits="userSpaceOnUse" x1="117.4563" y1="558.1066" x2="150.1863" y2="521.7667" gradientTransform="matrix(1 0 0 1 0 -197.56)">
		<stop offset="0" style="stop-color:#FF8E31"/>
		<stop offset="1" style="stop-color:#ED6B21"/>
	</linearGradient>
	<path style="fill:url(#SVGID_00000075878123903218749640000016138770347859002808_);" d="M145.4,300.2l-65.1,39.2&#10;&#9;&#9;c0,0,20.2,13.2,52.3,32.3l68.9-42.3"/>
</g>
<g id="Plant_authentication-5">
	<path class="st3_authentication-5" d="M239.6,128.5c-1.2-0.9-2.5-1.7-3.9-2.3c-4-2-5.1-4.2-3.5-8.4c3.2-8.4-8.6-24.2-18.1-20.4&#10;&#9;&#9;c-6,2.4-10.9,9.2-12.9,15.2c-0.9,2.6-1,5.4-0.4,8.1c0.6,2.2,3.3,4.5,0.8,6.3c-4.3,3.1-11,4.3-12.6,10.2c-0.5,1.6-0.2,3.4,0.6,4.8&#10;&#9;&#9;c1.3,1.7,3.2,2.8,5.3,3c3.7,0.6,2.5,1.1,1.7,4c-2.3,8.1,5.8,10.5,12.3,11.4c8,1,17.9,1.9,25.4-2c2.2-1.1,4.4-3,4.5-5.7&#10;&#9;&#9;s-4.1-5.4-3-8.2c0.3-0.7,0.9-1.3,1.5-1.7c2.2-1.8,5.2-3.3,6-6.3C244.1,133,242.1,130.4,239.6,128.5z"/>
	<path class="st4_authentication-5" d="M211.8,150.1c-3.9-3.7-9.1-4.6-14.3-4.4c0.1,0.1,0.1,0.3,0.1,0.4c0,0.1,0,0.2,0,0.4v0.1l0,0&#10;&#9;&#9;c4.9-0.2,9.9,0.6,13.6,4.2c2.8,2.8,4.7,6.4,5.4,10.3h0.9C216.7,156.9,214.7,153.1,211.8,150.1z"/>
	<path class="st4_authentication-5" d="M222,152.9c-0.5,0.8-1,1.6-1.5,2.4c0.2-3,0.5-5.9,0.8-8.8c0.6-2.1,1.4-4.1,2.4-6c1.4-2.8,3.3-5.3,5.6-7.3&#10;&#9;&#9;c2.9-2.3,6.1-4,9.6-5.1c-0.3-0.1-0.5-0.3-0.8-0.5l-0.2-0.1c-6,2.3-10.9,5.5-14.3,11.3c-0.7,1.2-1.3,2.4-1.8,3.7&#10;&#9;&#9;c0.3-1.9,0.5-3.9,0.9-5.8c1.5-9,4-18,9.7-25.2c-0.1-0.4-0.2-0.7-0.3-1.1c-5.9,7.2-8.6,16.2-10.1,25.3c-0.6,3.6-1.1,7.1-1.5,10.7&#10;&#9;&#9;l0,0c0.5-16.3,0.5-32.7-0.3-49c-0.3-0.1-0.6-0.2-0.9-0.3c0.7,14.8,0.8,29.6,0.4,44.3c-0.2,0-0.4,0.2-0.5,0.3&#10;&#9;&#9;c-0.3-2.4-0.6-4.7-1.1-7.1c-2-9.3-6.1-20.9-15.6-25l0,0l-0.1,0.2l-0.3,0.6c9.6,4.2,13.5,16.4,15.4,25.9c0.6,3.3,1,6.7,1.2,10.1&#10;&#9;&#9;c-0.3,3.3-0.4,6.7-0.6,10c-0.8-5.1-2.2-10.1-4.3-14.8c-2.4-5.4-7.2-13.1-13.8-13.7c-0.6,0.4-1.3,0.7-2,0.9&#10;&#9;&#9;c8.1-1.2,13.7,9.6,16,15.9c1.9,5.2,3.2,10.7,3.8,16.2h0.1c-0.1,11.1,0.5,22.1,2,33.1c0.1,0.9,1.6,1,1.5,0c-1.5-11-2.1-22-2-33.1&#10;&#9;&#9;h0.6c0-1.1,0.1-2.3,0.2-3.5c0.5-1,1.1-2,1.7-3c1.8-3,4.2-5.5,7.1-7.4c2.1-1.1,4.3-1.9,6.7-2.3c0-0.4,0.2-0.7,0.4-1&#10;&#9;&#9;c-2.4,0.4-4.7,1.1-6.8,2.2C226.3,147.7,223.8,150,222,152.9z"/>
	
		<ellipse transform="matrix(0.9996 -2.914287e-02 2.914287e-02 0.9996 -5.3774 6.4465)" class="st5_authentication-5" cx="218.5" cy="187.7" rx="12.1" ry="10.9"/>
</g>
<g id="Laptop_authentication-5">
	<path class="st6_authentication-5" d="M245.5,198.8l-86.8,53.8c-2.5,1.6-3.3,4.9-1.7,7.4c0.5,0.8,1.1,1.4,1.9,1.8l131.8,74.5c3.7,2.1,8.3,2.1,12-0.1&#10;&#9;&#9;l86.4-50.8c6.3-5.1,5.8-14.9,0-15.3l-131-71.6C254.1,196.4,249.3,196.5,245.5,198.8z"/>
	<path class="st7_authentication-5" d="M245.5,195.1l-86.8,53.8c-2.5,1.6-3.3,4.9-1.7,7.4c0.5,0.8,1.1,1.4,1.9,1.8l131.8,74.4c3.7,2.1,8.3,2.1,12-0.1&#10;&#9;&#9;l86.4-50.8c3.2-1.9,4.3-5.9,2.4-9.1c-0.6-1-1.4-1.8-2.4-2.4l-131-75.3C254.1,192.6,249.3,192.7,245.5,195.1z"/>
	<path class="st8_authentication-5" d="M249,187.8c0,0,36.1-116.4,35.9-116.4s1.1-5.2,7.5-2.2l138.3,81.4c0,0,6.7,2.7,5.4,9s-35.2,113.9-35.2,113.9&#10;&#9;&#9;c-1.5,2.1-4.1,3-6.5,2.2c-4.2-1.3-142.1-81.4-142.1-81.4C249.6,193.3,248.2,190.5,249,187.8z"/>
	<path class="st9_authentication-5 targetColor" d="M241.8,261.1l39.8,22.4c1.9,1.1,2.6,3.5,1.5,5.4c-0.3,0.6-0.9,1.1-1.5,1.5l-23.3,13.7c-1.6,0.9-3.7,0.9-5.3,0&#10;&#9;&#9;l-40.7-23.2c-1.6-0.9-2.2-2.9-1.2-4.5c0.3-0.5,0.7-0.9,1.2-1.2l24.3-14C238.2,260.2,240.2,260.2,241.8,261.1z" style="fill: rgb(104, 225, 253);"/>
	<path class="st9_authentication-5 targetColor" d="M240.1,207.5l-31.7,19.8c-1.8,1.1-2.3,3.5-1.2,5.3c0.3,0.5,0.8,1,1.3,1.3l113.9,65c3.5,2,7.7,2,11.2,0&#10;&#9;&#9;c7.3-4.3,19.9-12,27.7-16.7c2.2-1.3,3-4.2,1.6-6.4c-0.4-0.7-1-1.3-1.7-1.7c-23-13.4-98.2-57.1-114.7-66.7&#10;&#9;&#9;C244.6,206.2,242.1,206.2,240.1,207.5z" style="fill: rgb(104, 225, 253);"/>
</g>
<g id="Character_authentication-5">
	<path class="st8_authentication-5" d="M193,318l-1.6-1.2l1.4-19.1l8.4,0.3c0,0-0.4,8.1,1.4,10.1s6.8,1,7.3,1.2s3.8-0.5,5.2,1.1s-5.5,5.5-9,6.1&#10;&#9;&#9;c-2.4,0.3-4.8,0.2-7.2-0.2c0,0-0.4-4.9-1.6-4.5s-1.7,5.5-1.7,5.5L193,318z"/>
	<path class="st3_authentication-5" d="M189.6,258c-0.7,20-1.4,46-1.4,46s4.5,6.2,16.9,3.5c1.3-0.3,4.3-32.1,5.7-48.6&#10;&#9;&#9;C203.9,257,196.6,256.7,189.6,258z"/>
	<path class="st8_authentication-5" d="M214.9,334.4l-1.6-1.2l1.4-19.1l8.4,0.3c0,0-0.4,8.1,1.4,10.1s6.8,1,7.3,1.2s3.8-0.5,5.2,1.1s-5.5,5.5-9,6.1&#10;&#9;&#9;c-2.4,0.3-4.8,0.2-7.2-0.2c0,0-0.4-4.9-1.6-4.5s-1.7,5.5-1.7,5.5L214.9,334.4z"/>
	<path class="st3_authentication-5" d="M218.5,261.6c-5.5-2.5-11.5-4-17.5-4.4c1,7.5,2,12.6,2.1,13c0.4,0.9,8.1,48.4,8.1,48.4&#10;&#9;&#9;c9,3.6,19.8,0.6,19.8,0.6s-3.7-37-4-43.2c0-0.7,0-1.3-0.1-2C226.6,268.6,223.4,263.8,218.5,261.6z"/>
	<path class="st3_authentication-5" d="M162.8,272.6c0,0,15.4-13.9,26.8-14.6s27.7,11.1,26.5,18s-23.2,21.7-23.2,21.7"/>
	<path class="st8_authentication-5" d="M194.2,247.8l-12.2-8.7c-1-0.7-1.4-2.1-0.9-3.2l8.7-19.3c0.6-1.3,2.1-1.9,3.4-1.3c0,0,0,0,0,0l0.3,0.2&#10;&#9;&#9;l13.6,8.5c1.2,0.7,1.6,2.2,0.9,3.4L198,246.8c-0.6,1.3-2.2,1.8-3.5,1.2L194.2,247.8z"/>
	<path class="st9_authentication-5 targetColor" d="M193.1,247.1l-12.3-8.7c-1-0.7-1.4-2.1-0.9-3.2l8.7-19.2c0.6-1.3,2.1-1.9,3.4-1.3c0,0,0,0,0,0&#10;&#9;&#9;c0.1,0,0.2,0.1,0.3,0.2l13.7,8.5c1.2,0.7,1.6,2.2,0.9,3.4l-10.1,19.4c-0.7,1.3-2.2,1.7-3.5,1.1L193.1,247.1z" style="fill: rgb(104, 225, 253);"/>
	<polygon class="st7_authentication-5" points="195.1,245.9 181.4,236.2 190.4,216.1 205.7,225.6 &#9;"/>
	<path class="st10_authentication-5" d="M188.8,224.6c-4.5,2.5-11.7,5.3-16.5,8.6c-0.8,0.5-1.9,2.4-1.2,2.1c-0.3,0.4,2.8,1.6,2.5,2&#10;&#9;&#9;c-0.1,0.1,2-1,2.1-1l0,0c1.8,1,3.9,1.2,5.9,0.7l0.8-0.6l0,0l0.2-0.1c0-0.1,0.1-0.1,0.1-0.1l0.1-0.1c0-0.1,0.1-0.2,0.2-0.3&#10;&#9;&#9;c1.1-0.8,3.4-1.3,3.6-2.7c0-0.4-0.2-0.7-0.3-1.1c-0.1-0.2-0.1-0.4,0.1-0.5c0.2-0.8,0-1.7-0.5-2.4l0,0l0.3-0.3&#10;&#9;&#9;c1.3-0.9,2.5-1.9,3.6-3c0.1-0.1,0.2-0.3,0.2-0.4v-0.2c-0.1-0.5-0.5-0.8-1-0.7C189,224.5,188.9,224.5,188.8,224.6L188.8,224.6z"/>
	<path class="st4_authentication-5" d="M186.5,229.5c-0.4-0.9-0.9-0.9-1.6-0.6c-1.6,0.7-3.1,1.6-4.5,2.6c-0.2,0.2,0,0.5,0.2,0.4&#10;&#9;&#9;c0.9-0.6,4.7-3.4,5.5-2.2s-1.8,2.1-2.5,2.5l-2.8,1.5c-0.2,0.1,0,0.5,0.2,0.4l1.8-0.9c0,0,0,0.1,0,0.1c0.1,0.2,0.3,0.4,0.5,0.5&#10;&#9;&#9;c-0.3,0.5-0.4,1.1-0.2,1.6l0.1,0.1c-1.6,1.6-4,2-6,0.9c-0.2-0.2-0.5,0.1-0.3,0.3c1.8,1.4,5.5,1,6.8-1c0.3,0,0.6-0.1,0.8-0.3&#10;&#9;&#9;c0.8-0.3,1.6-0.8,2.1-1.4c0.3-0.6,0.3-1.3,0-1.8v-0.1c0.4-0.4,0.4-1.1,0-1.6c0,0,0,0,0,0l0,0C186.7,230.2,186.6,229.9,186.5,229.5z&#10;&#9;&#9; M186.3,233.6c-0.3,0.4-0.7,0.8-1.2,1c-0.3,0.2-1,0.7-1.3,0.6c-0.6-0.1-0.2-0.9,0-1.2l0,0c0.3-0.1,0.6-0.3,0.9-0.5l1.1-0.7l0.4-0.3&#10;&#9;&#9;C186.3,232.8,186.4,233.3,186.3,233.6L186.3,233.6z M184.9,232.8c-0.6,0.4-1.1,0.9-1.7,0.2c0.9-0.4,1.8-0.9,2.6-1.4&#10;&#9;&#9;c0.3-0.1,0.5-0.3,0.6-0.6C186.8,231.8,185.3,232.5,184.9,232.8z"/>
	<path class="st6_authentication-5" d="M175.1,229.8c0,0,3,0.7,3.3,7.1l-2.3,5.7l-12.5-6.5C163.6,236.2,166.6,232.4,175.1,229.8z"/>
	<path class="st10_authentication-5" d="M204.9,232.8c-0.9,2.1-1.9,3.9-2.6,6c-0.5-1.3-1.1-2.6-1.8-3.9l-0.1-0.1c-0.3-0.5-1-0.7-1.5-0.4&#10;&#9;&#9;c-0.3,0.2-0.5,0.6-0.5,1c0.2,1.3,0.7,2.5,1.5,3.6c-0.1,0.1-0.2,0.1-0.3,0.2c-1.8,2-1.4,5.1-1.2,7.5c0,0.5,0.5,0.9,1,0.9&#10;&#9;&#9;c0,0,0,0,0,0c0.2,0,0.3,0,0.4-0.1c0.2,0,0.3,0,0.5-0.1c1.6-1.1,2.8-2.8,3.3-4.7C204.6,239.6,205.9,236.2,204.9,232.8z"/>
	<path class="st6_authentication-5" d="M158.1,232.7l4.5-1.4c1.1,0.2,10.9,4.2,15,11.1c0.5,2.1,0.8,4.3,1,6.5c0.4,2.9,0.7,5.8,0.8,8.7&#10;&#9;&#9;c0.2,3.2,0.1,6.4-0.1,9.5c-0.1,1.4-0.2,2-0.5,3.4c-0.5,0.5-1.1,0.8-1.8,1.1c-13.5,4.7-23.6-2.9-23.9-4s-1.1-16.8-1.4-26.1&#10;&#9;&#9;C151.5,237.5,154.2,233.8,158.1,232.7z"/>
	<path class="st10_authentication-5" d="M170.1,216.5c0,0,3,15.3-2.6,17s-12.3-4.7-12.8-7.9S162.1,211.4,170.1,216.5z"/>
	<path class="st4_authentication-5" d="M167.9,222.7c0.2-0.2,3.4-1.1,4.1-3.9s-1.8-6.3-7.4-6.8s-15.1,2.6-13.7,17.5s16.4,8.5,17.4,3.7&#10;&#9;&#9;C168.8,229.7,168.6,226.1,167.9,222.7z"/>
	<path class="st4_authentication-5" d="M167.9,222.7c0,0,0.9,5.1,3,7.3s3.7,6.2,1.2,9.2s0,4.7,3.6,7.5s1.4,14.7-11.5,11.8s-19-10.7-19-10.7&#10;&#9;&#9;s3.3-23.2,6.8-28.6"/>
	<path class="st6_authentication-5" d="M177.6,242.7c0,0,2.9,9.8,5.8,10.1s7.3-4,10.4-9.6c4.5-0.5,8.5,2.8,9,7.3c0,0,0,0,0,0c0,0.2,0,0.4,0,0.5&#10;&#9;&#9;c0,0-10.3,20.8-25.2,15.7"/>
	<ellipse transform="matrix(0.3631 -0.9318 0.9318 0.3631 -91.4427 327.1114)" class="st8_authentication-5" cx="193.5" cy="230.4" rx="6" ry="5.2"/>
	<polygon class="st7_authentication-5" points="190.1,228.9 191.7,228.4 192.3,230.7 197.6,228.8 197.8,230.4 191.4,232.8 &#9;"/>
	<path class="st5_authentication-5" d="M123.8,317.2c-9.2-11.5-13.4-26.2-13.2-40.9c0.1-11.9,4.8-23.3,13.1-31.9c7.6-7.8,19.1-11.6,29.2-6.4&#10;&#9;&#9;c8.4,4.4,12.5,12.8,15.5,21.4c3.5,10.3,4.7,23.5,17.3,26.7c4.9,1.2,10,0.4,15,0c8.8-0.6,18,2.2,20.7,11.6&#10;&#9;&#9;c4.9,16.7-17.6,31-30.2,36.3c-22.4,9.2-48.1,3.6-64.7-14C125.5,319.2,124.7,318.3,123.8,317.2z"/>
</g>
<g id="Wall_Photo_authentication-5">
	<path class="st9_authentication-5 targetColor" d="M87.7,119.4l1.1,63c0.1,2.2,1.9,3.9,4.1,3.9c0.6,0,1.2-0.2,1.7-0.4l53.6-26.7c1.8-0.9,2.9-2.8,2.9-4.8&#10;&#9;&#9;l-1.1-63.1c0-2.4-2-4.3-4.3-4.2c-0.7,0-1.3,0.2-1.9,0.5l-53,27.1C88.8,115.5,87.7,117.3,87.7,119.4z" style="fill: rgb(104, 225, 253);"/>
	<path class="st6_authentication-5" d="M141.7,128.9c-10.2,2.9-6.7,14.3-14,20.3c-8.9,7.3-12.3-13.5-23.2-12.1c-13.1,1.5-15.7,45.4-15.7,45.4&#10;&#9;&#9;c2.1,5,5.7,3.5,5.7,3.5l56.5-28.2l-0.4-24.3C148.3,130.7,145.3,128.6,141.7,128.9z"/>
</g>
<g id="Screen_authentication-5">
	<polygon class="st9_authentication-5 targetColor" points="287.1,79.9 428.8,162.5 399.4,261.1 255.9,181 &#9;" style="fill: rgb(104, 225, 253);"/>
	<path class="st7_authentication-5" d="M310.2,167.1c14.8,8.4,47.8,27.5,60.4,34.8c2.9,1.7,4.1,5.2,3,8.3l-0.2,0.7c-1.3,3.5-5.2,5.4-8.7,4.1&#10;&#9;&#9;c0,0,0,0,0,0c-0.4-0.1-0.8-0.3-1.1-0.5L303,179.5c-3-1.7-4.3-5.4-3.1-8.6l0,0c1.4-3.7,5.5-5.6,9.2-4.2c0,0,0,0,0,0&#10;&#9;&#9;C309.5,166.8,309.8,166.9,310.2,167.1z"/>
	<ellipse transform="matrix(0.1721 -0.9851 0.9851 0.1721 85.0265 459.6771)" class="st6_authentication-5" cx="316" cy="179.3" rx="3.2" ry="2.7"/>
	
		<ellipse transform="matrix(0.1721 -0.9851 0.9851 0.1721 86.9039 470.7365)" class="st6_authentication-5" cx="323.5" cy="183.7" rx="3.2" ry="2.7"/>
	<ellipse transform="matrix(0.1721 -0.9851 0.9851 0.1721 88.7575 481.8351)" class="st6_authentication-5" cx="331" cy="188.1" rx="3.2" ry="2.7"/>
	
		<ellipse transform="matrix(0.1721 -0.9851 0.9851 0.1721 90.7456 493.4023)" class="st6_authentication-5" cx="338.9" cy="192.7" rx="3.2" ry="2.7"/>
	
		<ellipse transform="matrix(0.1721 -0.9851 0.9851 0.1721 92.6688 505.0061)" class="st6_authentication-5" cx="346.8" cy="197.4" rx="3.2" ry="2.7"/>
	
		<ellipse transform="matrix(0.1721 -0.9851 0.9851 0.1721 94.7162 516.4444)" class="st6_authentication-5" cx="354.6" cy="201.9" rx="3.2" ry="2.7"/>
	
		<ellipse transform="matrix(0.1721 -0.9851 0.9851 0.1721 135.4318 467.783)" class="st7_authentication-5" cx="346" cy="153.3" rx="15.3" ry="14.3"/>
	<ellipse transform="matrix(0.28 -0.96 0.96 0.28 104.4863 440.8616)" class="st6_authentication-5" cx="346.1" cy="150.8" rx="5.9" ry="5.2"/>
	<path class="st6_authentication-5" d="M332.4,158.9c0,0,4.9-5.4,11.5-3.2c5,1.5,7.8,6.7,6.6,11.7c0,0-5.3,3.4-12.4-1.2&#10;&#9;&#9;C338.1,166.2,333.3,163.1,332.4,158.9z"/>
	<path class="st6_authentication-5" d="M298.1,183.5c1.5-0.3,3-0.6,4.5-1.1c1.6-0.6-4.2-1.8-4.2-1.8"/>
	<path class="st6_authentication-5" d="M283.6,142.5c1.9-0.9,3.9-1.4,6-1.4c2.8,0.3-0.4,6-0.4,6"/>
	<path class="st6_authentication-5" d="M291.6,141.8l18.6,11.1c1.8,1.1,2.6,3.3,2,5.3l-6.9,20.8c-0.9,2.7-3,4.5-5.5,3l-20-10.7&#10;&#9;&#9;c-1.8-1.1-2.6-3.3-1.9-5.2l7.1-21.8c0.8-2.4,3.3-3.7,5.7-2.9C291,141.5,291.3,141.6,291.6,141.8z"/>
	<path class="st6_authentication-5" d="M287.8,142.8l18.6,11.1c1.8,1.1,2.7,3.3,2,5.3l-6.9,20.8c-0.9,2.7-3,4.5-5.5,3l-20-10.7&#10;&#9;&#9;c-1.8-1.1-2.6-3.3-1.9-5.2l7.1-21.8c0.8-2.4,3.3-3.7,5.7-2.9c0,0,0,0,0,0C287.2,142.5,287.5,142.6,287.8,142.8z"/>
	<path class="st7_authentication-5" d="M292.1,143.7c0,0,3-12,10.7-10.2s1.5,17.3,1.5,17.3s0,1.5,3.5,2.1c0,0,7.5-18-2.6-22.8s-16,9.3-16.5,11.9&#10;&#9;&#9;C289.3,143.2,290.7,143.9,292.1,143.7z"/>
	<ellipse transform="matrix(0.9901 -0.14 0.14 0.9901 -19.1559 42.3957)" class="st7_authentication-5" cx="291.7" cy="157.3" rx="4.9" ry="5.4"/>
	<path class="st7_authentication-5" d="M285.1,169.1l4.5-12.8c0.3-1,1.4-1.5,2.4-1.1l0.9,0.3c1,0.3,1.5,1.4,1.1,2.4l-4.5,12.8c-0.3,1-1.4,1.5-2.4,1.1&#10;&#9;&#9;l-0.9-0.3C285.3,171.1,284.8,170,285.1,169.1z"/>
</g>
</svg>